<?xml version="1.0" encoding="utf-8"?>
<!DOCTYPE svg PUBLIC "-//W3C//DTD SVG 1.1//EN" "http://www.w3.org/Graphics/SVG/1.1/DTD/svg11.dtd">
<svg width="662" height="452px" viewBox="14, 14, 662, 452" xmlns="http://www.w3.org/2000/svg" xmlns:xlink="http://www.w3.org/1999/xlink" xmlns:xml="http://www.w3.org/XML/1998/namespace" version="1.1">
  <defs>
    <marker refX="9.8" refY="6" orient="auto" markerWidth="12" markerHeight="12" markerUnits="strokeWidth" id="arrowSecuenceFlow885bcdbf-2ad3-4ad7-aec5-ebb7e7ac1881">
      <path d="M0 0 L2 6 L0 12 L10 6 z" style="fill:black;" />
    </marker>
  </defs>
  <g class="djs-group">
    <g transform="matrix(1, 0, 0, 1, 30, 30)" id="gfx-6e99ba04-b0e2-4842-a51b-8b1f916ab365" display="block" class="djs-element djs-shape" data-element-id="6e99ba04-b0e2-4842-a51b-8b1f916ab365">
      <g class="djs-visual">
        <g>
          <rect x="0" y="0" width="630" height="350" opacity="0" fill-opacity="0" style="fill:transparent;" />
          <path d="M630 0 L0 0 L0 350 L630 350 z M50 0 L50 350" stroke-width="1px" shape-rendering="crispEdges" fill-opacity="0" class="" style="fill:transparent;stroke:black;" />
        </g>
      </g>
      <svg width="50" height="350" class="djs-svg-text">
        <text transform="matrix(-1.83697E-16, -1, 1, -1.83697E-16, 0, 350)" font-family="'Segoe UI'" font-size="10.6252px" font-style="normal" font-weight="bold" lineHeight="1.2" textDirection="270" textAlign="center" class="djs-label" style="fill:black;">
          <tspan x="56.15787" y="28.25">7. Gerenciamento das Comunicações do Projeto</tspan>
        </text>
      </svg>
    </g>
  </g>
  <g class="djs-group">
    <g transform="matrix(1, 0, 0, 1, 167, 160)" id="gfx-3b3656bf-3289-4bd0-beb5-309a7417287c" display="block" class="djs-element djs-shape" data-element-id="3b3656bf-3289-4bd0-beb5-309a7417287c">
      <g class="djs-visual">
        <g>
          <rect x="0" y="0" width="90" height="60" rx="8" stroke-width="2px" class="" style="fill:#ECEFFF;stroke:#03689A;" />
          <g />
        </g>
      </g>
      <svg width="90" height="56" class="djs-svg-text">
        <text font-family="'Segoe UI'" font-size="10.6252px" font-style="normal" font-weight="normal" lineHeight="1.2" textDirection="0" textAlign="center" class="djs-label" style="fill:black;">
          <tspan x="9.051231" y="20.25">Preparar plano </tspan>
          <tspan x="5.333206" y="33.25">de comunicação </tspan>
          <tspan x="20.25459" y="46.25">do projeto</tspan>
        </text>
      </svg>
    </g>
  </g>
  <g class="djs-group">
    <g transform="matrix(1, 0, 0, 1, 305, 160)" id="gfx-2cefe876-83ed-439a-9e29-37d52ad98f0e" display="block" class="djs-element djs-shape" data-element-id="2cefe876-83ed-439a-9e29-37d52ad98f0e">
      <g class="djs-visual">
        <g>
          <rect x="0" y="0" width="90" height="60" rx="8" stroke-width="2px" class="" style="fill:#ECEFFF;stroke:#03689A;" />
          <g />
        </g>
      </g>
      <svg width="90" height="56" class="djs-svg-text">
        <text font-family="'Segoe UI'" font-size="10.6252px" font-style="normal" font-weight="normal" lineHeight="1.2" textDirection="0" textAlign="center" class="djs-label" style="fill:black;">
          <tspan x="14.80201" y="26.75">Gerenciar as </tspan>
          <tspan x="11.81773" y="39.75">comunicações</tspan>
        </text>
      </svg>
    </g>
  </g>
  <g class="djs-group">
    <g transform="matrix(1, 0, 0, 1, 441, 160)" id="gfx-e7fe0a42-0441-4e05-a82d-abe192e3b3ad" display="block" class="djs-element djs-shape" data-element-id="e7fe0a42-0441-4e05-a82d-abe192e3b3ad">
      <g class="djs-visual">
        <g>
          <rect x="0" y="0" width="90" height="60" rx="8" stroke-width="2px" class="" style="fill:#ECEFFF;stroke:#03689A;" />
          <g />
        </g>
      </g>
      <svg width="90" height="56" class="djs-svg-text">
        <text font-family="'Segoe UI'" font-size="10.6252px" font-style="normal" font-weight="normal" lineHeight="1.2" textDirection="0" textAlign="center" class="djs-label" style="fill:black;">
          <tspan x="13.66119" y="26.75">Monitorar as </tspan>
          <tspan x="11.81773" y="39.75">comunicações</tspan>
        </text>
      </svg>
    </g>
  </g>
  <g class="djs-group">
    <g transform="matrix(1, 0, 0, 1, 96, 175)" id="gfx-7310ad8b-b928-48ac-a2e0-6fd85e613e7e" display="block" class="djs-element djs-shape" data-element-id="7310ad8b-b928-48ac-a2e0-6fd85e613e7e">
      <g class="djs-visual">
        <g>
          <g transform="translate(-8.90625, -8.90625) scale(1.5)">
            <path d="M16 25.2 C10.9 25.2 6.8 21.1 6.8 16 C6.8 10.9 10.9 6.8 16 6.8 C21.1 6.8 25.2 10.9 25.2 16 C25.2 21.1 21.1 25.2 16 25.2 L16 25.2 z" style="fill:#E6FF97;" />
            <path d="M15.9 7 C20.9 7 24.9 11 24.9 16 C24.9 21 20.9 25 15.9 25 C10.9 25 6.9 21 6.9 16 C6.9 11 10.9 7 15.9 7 M15.9 6 C10.4 6 5.9 10.5 5.9 16 C5.9 21.5 10.4 26 15.9 26 C21.4 26 25.9 21.5 25.9 16 C25.9 10.5 21.4 6 15.9 6 z" stroke-width="0.2px" class="" style="fill:#62A716;stroke:#62A716;" />
          </g>
        </g>
      </g>
    </g>
  </g>
  <g class="djs-group">
    <g transform="matrix(1, 0, 0, 1, 576, 175)" id="gfx-4624d4e4-c7b2-4993-9133-e588b5cdcda1" display="block" class="djs-element djs-shape" data-element-id="4624d4e4-c7b2-4993-9133-e588b5cdcda1">
      <g class="djs-visual">
        <g>
          <g transform="translate(-8.90625, -8.90625) scale(1.5)">
            <path d="M16 25.2 A9.2 9.2 0 1 1 25.2 16 A9.2 9.2 0 0 1 16 25.2 z" style="fill:#EEAAAA;" />
            <path d="M16 7.5 A8.5 8.5 0 1 1 7.5 16 A8.5 8.5 0 0 1 16 7.5 M16 6 A10 10 0 1 0 26 16 A10 10 0 0 0 16 6 z" stroke-width="0.4px" class="" style="fill:#990000;stroke:#990000;" />
          </g>
        </g>
      </g>
    </g>
  </g>
  <g class="djs-group">
    <g id="gfx-885bcdbf-2ad3-4ad7-aec5-ebb7e7ac1881" display="block" class="djs-element djs-connection" data-element-id="885bcdbf-2ad3-4ad7-aec5-ebb7e7ac1881">
      <g class="djs-visual">
        <g>
          <defs>
            <marker refX="9.8" refY="6" orient="auto" markerWidth="12" markerHeight="12" markerUnits="strokeWidth" id="arrowSecuenceFlow885bcdbf-2ad3-4ad7-aec5-ebb7e7ac1881#1">
              <path d="M0 0 L2 6 L0 12 L10 6 z" style="fill:black;" />
            </marker>
          </defs>
          <path d="M126 190 L167 190" marker-end="url(#arrowSecuenceFlow885bcdbf-2ad3-4ad7-aec5-ebb7e7ac1881)" stroke-width="1px" stroke-linejoin="round" shape-rendering="crispEdges" fill-opacity="0" class="" style="fill:transparent;stroke:black;" />
        </g>
      </g>
    </g>
  </g>
  <g class="djs-group">
    <g id="gfx-614add6f-6359-4c9a-8878-4428fe639c9d" display="block" class="djs-element djs-connection" data-element-id="614add6f-6359-4c9a-8878-4428fe639c9d">
      <g class="djs-visual">
        <g>
          <defs>
            <marker refX="9.8" refY="6" orient="auto" markerWidth="12" markerHeight="12" markerUnits="strokeWidth" id="arrowSecuenceFlow614add6f-6359-4c9a-8878-4428fe639c9d">
              <path d="M0 0 L2 6 L0 12 L10 6 z" style="fill:black;" />
            </marker>
          </defs>
          <path d="M257 190 L305 190" marker-end="url(#arrowSecuenceFlow614add6f-6359-4c9a-8878-4428fe639c9d)" stroke-width="1px" stroke-linejoin="round" shape-rendering="crispEdges" fill-opacity="0" class="" style="fill:transparent;stroke:black;" />
        </g>
      </g>
    </g>
  </g>
  <g class="djs-group">
    <g id="gfx-e6eca50d-5f69-4bfe-a875-4f553c3a66fc" display="block" class="djs-element djs-connection" data-element-id="e6eca50d-5f69-4bfe-a875-4f553c3a66fc">
      <g class="djs-visual">
        <g>
          <defs>
            <marker refX="9.8" refY="6" orient="auto" markerWidth="12" markerHeight="12" markerUnits="strokeWidth" id="arrowSecuenceFlowe6eca50d-5f69-4bfe-a875-4f553c3a66fc">
              <path d="M0 0 L2 6 L0 12 L10 6 z" style="fill:black;" />
            </marker>
          </defs>
          <path d="M395 190 L441 190" marker-end="url(#arrowSecuenceFlowe6eca50d-5f69-4bfe-a875-4f553c3a66fc)" stroke-width="1px" stroke-linejoin="round" shape-rendering="crispEdges" fill-opacity="0" class="" style="fill:transparent;stroke:black;" />
        </g>
      </g>
    </g>
  </g>
  <g class="djs-group">
    <g id="gfx-b664e377-e693-47a5-a4b1-b89dcdd5e9a8" display="block" class="djs-element djs-connection" data-element-id="b664e377-e693-47a5-a4b1-b89dcdd5e9a8">
      <g class="djs-visual">
        <g>
          <defs>
            <marker refX="9.8" refY="6" orient="auto" markerWidth="12" markerHeight="12" markerUnits="strokeWidth" id="arrowSecuenceFlowb664e377-e693-47a5-a4b1-b89dcdd5e9a8">
              <path d="M0 0 L2 6 L0 12 L10 6 z" style="fill:black;" />
            </marker>
          </defs>
          <path d="M531 190 L576 190" marker-end="url(#arrowSecuenceFlowb664e377-e693-47a5-a4b1-b89dcdd5e9a8)" stroke-width="1px" stroke-linejoin="round" shape-rendering="crispEdges" fill-opacity="0" class="" style="fill:transparent;stroke:black;" />
        </g>
      </g>
    </g>
  </g>
</svg>