<?xml version="1.0" encoding="utf-8"?>
<!DOCTYPE svg PUBLIC "-//W3C//DTD SVG 1.1//EN" "http://www.w3.org/Graphics/SVG/1.1/DTD/svg11.dtd">
<svg width="592" height="452px" viewBox="14, 14, 592, 452" xmlns="http://www.w3.org/2000/svg" xmlns:xlink="http://www.w3.org/1999/xlink" xmlns:xml="http://www.w3.org/XML/1998/namespace" version="1.1">
  <defs>
    <marker refX="9.8" refY="6" orient="auto" markerWidth="12" markerHeight="12" markerUnits="strokeWidth" id="arrowSecuenceFlow3b71d064-1795-441f-b0b4-51faf4bd65f4">
      <path d="M0 0 L2 6 L0 12 L10 6 z" style="fill:black;" />
    </marker>
  </defs>
  <g class="djs-group">
    <g transform="matrix(1, 0, 0, 1, 30, 30)" id="gfx-6b0e26e6-df0b-4aaf-b88e-2faf9b5670fc" display="block" class="djs-element djs-shape" data-element-id="6b0e26e6-df0b-4aaf-b88e-2faf9b5670fc">
      <g class="djs-visual">
        <g>
          <rect x="0" y="0" width="560" height="350" opacity="0" fill-opacity="0" style="fill:transparent;" />
          <path d="M560 0 L0 0 L0 350 L560 350 z M50 0 L50 350" stroke-width="1px" shape-rendering="crispEdges" fill-opacity="0" class="" style="fill:transparent;stroke:black;" />
        </g>
      </g>
      <svg width="50" height="350" class="djs-svg-text">
        <text transform="matrix(-1.83697E-16, -1, 1, -1.83697E-16, 0, 350)" font-family="'Segoe UI'" font-size="10.6252px" font-style="normal" font-weight="bold" lineHeight="1.2" textDirection="270" textAlign="center" class="djs-label" style="fill:black;">
          <tspan x="60.37888" y="28.25">8, Gerenciamento da qualidade de um projeto</tspan>
        </text>
      </svg>
    </g>
  </g>
  <g class="djs-group">
    <g transform="matrix(1, 0, 0, 1, 150, 164)" id="gfx-9bc3d57e-0700-4465-8a90-c49e97be168a" display="block" class="djs-element djs-shape" data-element-id="9bc3d57e-0700-4465-8a90-c49e97be168a">
      <g class="djs-visual">
        <g>
          <rect x="0" y="0" width="90" height="60" rx="8" stroke-width="2px" class="" style="fill:#ECEFFF;stroke:#03689A;" />
          <g />
        </g>
      </g>
      <svg width="90" height="56" class="djs-svg-text">
        <text font-family="'Segoe UI'" font-size="10.6252px" font-style="normal" font-weight="normal" lineHeight="1.2" textDirection="0" textAlign="center" class="djs-label" style="fill:black;">
          <tspan x="20.40239" y="20.25">Planejar o </tspan>
          <tspan x="8.307121" y="33.25">gerenciamento </tspan>
          <tspan x="14.57902" y="46.25">da qualidade</tspan>
        </text>
      </svg>
    </g>
  </g>
  <g class="djs-group">
    <g transform="matrix(1, 0, 0, 1, 258, 164)" id="gfx-ec63c9ba-3002-4744-84b2-25e59717d6f0" display="block" class="djs-element djs-shape" data-element-id="ec63c9ba-3002-4744-84b2-25e59717d6f0">
      <g class="djs-visual">
        <g>
          <rect x="0" y="0" width="90" height="60" rx="8" stroke-width="2px" class="" style="fill:#ECEFFF;stroke:#03689A;" />
          <g />
        </g>
      </g>
      <svg width="90" height="56" class="djs-svg-text">
        <text font-family="'Segoe UI'" font-size="10.6252px" font-style="normal" font-weight="normal" lineHeight="1.2" textDirection="0" textAlign="center" class="djs-label" style="fill:black;">
          <tspan x="17.05512" y="26.75">Gerenciar a </tspan>
          <tspan x="21.86211" y="39.75">qualidade</tspan>
        </text>
      </svg>
    </g>
  </g>
  <g class="djs-group">
    <g transform="matrix(1, 0, 0, 1, 379, 164)" id="gfx-ecf0bb01-73dc-4c40-a5cf-ddac370a8f94" display="block" class="djs-element djs-shape" data-element-id="ecf0bb01-73dc-4c40-a5cf-ddac370a8f94">
      <g class="djs-visual">
        <g>
          <rect x="0" y="0" width="90" height="60" rx="8" stroke-width="2px" class="" style="fill:#ECEFFF;stroke:#03689A;" />
          <g />
        </g>
      </g>
      <svg width="90" height="56" class="djs-svg-text">
        <text font-family="'Segoe UI'" font-size="10.6252px" font-style="normal" font-weight="normal" lineHeight="1.2" textDirection="0" textAlign="center" class="djs-label" style="fill:black;">
          <tspan x="17.39477" y="26.75">Controlar a </tspan>
          <tspan x="21.86211" y="39.75">qualidade</tspan>
        </text>
      </svg>
    </g>
  </g>
  <g class="djs-group">
    <g transform="matrix(1, 0, 0, 1, 101, 179)" id="gfx-21d8459d-0c2c-424c-a817-bbd62eb3e410" display="block" class="djs-element djs-shape" data-element-id="21d8459d-0c2c-424c-a817-bbd62eb3e410">
      <g class="djs-visual">
        <g>
          <g transform="translate(-8.90625, -8.90625) scale(1.5)">
            <path d="M16 25.2 C10.9 25.2 6.8 21.1 6.8 16 C6.8 10.9 10.9 6.8 16 6.8 C21.1 6.8 25.2 10.9 25.2 16 C25.2 21.1 21.1 25.2 16 25.2 L16 25.2 z" style="fill:#E6FF97;" />
            <path d="M15.9 7 C20.9 7 24.9 11 24.9 16 C24.9 21 20.9 25 15.9 25 C10.9 25 6.9 21 6.9 16 C6.9 11 10.9 7 15.9 7 M15.9 6 C10.4 6 5.9 10.5 5.9 16 C5.9 21.5 10.4 26 15.9 26 C21.4 26 25.9 21.5 25.9 16 C25.9 10.5 21.4 6 15.9 6 z" stroke-width="0.2px" class="" style="fill:#62A716;stroke:#62A716;" />
          </g>
        </g>
      </g>
    </g>
  </g>
  <g class="djs-group">
    <g transform="matrix(1, 0, 0, 1, 507, 179)" id="gfx-fa55ada2-137d-44c5-b200-70839c84b64e" display="block" class="djs-element djs-shape" data-element-id="fa55ada2-137d-44c5-b200-70839c84b64e">
      <g class="djs-visual">
        <g>
          <g transform="translate(-8.90625, -8.90625) scale(1.5)">
            <path d="M16 25.2 A9.2 9.2 0 1 1 25.2 16 A9.2 9.2 0 0 1 16 25.2 z" style="fill:#EEAAAA;" />
            <path d="M16 7.5 A8.5 8.5 0 1 1 7.5 16 A8.5 8.5 0 0 1 16 7.5 M16 6 A10 10 0 1 0 26 16 A10 10 0 0 0 16 6 z" stroke-width="0.4px" class="" style="fill:#990000;stroke:#990000;" />
          </g>
        </g>
      </g>
    </g>
  </g>
  <g class="djs-group">
    <g id="gfx-3b71d064-1795-441f-b0b4-51faf4bd65f4" display="block" class="djs-element djs-connection" data-element-id="3b71d064-1795-441f-b0b4-51faf4bd65f4">
      <g class="djs-visual">
        <g>
          <defs>
            <marker refX="9.8" refY="6" orient="auto" markerWidth="12" markerHeight="12" markerUnits="strokeWidth" id="arrowSecuenceFlow3b71d064-1795-441f-b0b4-51faf4bd65f4#1">
              <path d="M0 0 L2 6 L0 12 L10 6 z" style="fill:black;" />
            </marker>
          </defs>
          <path d="M131 194 L150 194" marker-end="url(#arrowSecuenceFlow3b71d064-1795-441f-b0b4-51faf4bd65f4)" stroke-width="1px" stroke-linejoin="round" shape-rendering="crispEdges" fill-opacity="0" class="" style="fill:transparent;stroke:black;" />
        </g>
      </g>
    </g>
  </g>
  <g class="djs-group">
    <g id="gfx-79065760-408a-4343-9b81-125bf0672109" display="block" class="djs-element djs-connection" data-element-id="79065760-408a-4343-9b81-125bf0672109">
      <g class="djs-visual">
        <g>
          <defs>
            <marker refX="9.8" refY="6" orient="auto" markerWidth="12" markerHeight="12" markerUnits="strokeWidth" id="arrowSecuenceFlow79065760-408a-4343-9b81-125bf0672109">
              <path d="M0 0 L2 6 L0 12 L10 6 z" style="fill:black;" />
            </marker>
          </defs>
          <path d="M240 194 L258 194" marker-end="url(#arrowSecuenceFlow79065760-408a-4343-9b81-125bf0672109)" stroke-width="1px" stroke-linejoin="round" shape-rendering="crispEdges" fill-opacity="0" class="" style="fill:transparent;stroke:black;" />
        </g>
      </g>
    </g>
  </g>
  <g class="djs-group">
    <g id="gfx-98b61dc4-daea-4711-a7d4-e58148154a52" display="block" class="djs-element djs-connection" data-element-id="98b61dc4-daea-4711-a7d4-e58148154a52">
      <g class="djs-visual">
        <g>
          <defs>
            <marker refX="9.8" refY="6" orient="auto" markerWidth="12" markerHeight="12" markerUnits="strokeWidth" id="arrowSecuenceFlow98b61dc4-daea-4711-a7d4-e58148154a52">
              <path d="M0 0 L2 6 L0 12 L10 6 z" style="fill:black;" />
            </marker>
          </defs>
          <path d="M348 194 L379 194" marker-end="url(#arrowSecuenceFlow98b61dc4-daea-4711-a7d4-e58148154a52)" stroke-width="1px" stroke-linejoin="round" shape-rendering="crispEdges" fill-opacity="0" class="" style="fill:transparent;stroke:black;" />
        </g>
      </g>
    </g>
  </g>
  <g class="djs-group">
    <g id="gfx-7feea08e-3588-4ab0-85c6-e05c93c036ec" display="block" class="djs-element djs-connection" data-element-id="7feea08e-3588-4ab0-85c6-e05c93c036ec">
      <g class="djs-visual">
        <g>
          <defs>
            <marker refX="9.8" refY="6" orient="auto" markerWidth="12" markerHeight="12" markerUnits="strokeWidth" id="arrowSecuenceFlow7feea08e-3588-4ab0-85c6-e05c93c036ec">
              <path d="M0 0 L2 6 L0 12 L10 6 z" style="fill:black;" />
            </marker>
          </defs>
          <path d="M469 194 L507 194" marker-end="url(#arrowSecuenceFlow7feea08e-3588-4ab0-85c6-e05c93c036ec)" stroke-width="1px" stroke-linejoin="round" shape-rendering="crispEdges" fill-opacity="0" class="" style="fill:transparent;stroke:black;" />
        </g>
      </g>
    </g>
  </g>
</svg>